<mxfile host="Electron" modified="2025-09-26T13:48:55.352Z" agent="Mozilla/5.0 (Windows NT 10.0; Win64; x64) AppleWebKit/537.36 (KHTML, like Gecko) draw.io/24.2.5 Chrome/120.0.6099.109 Electron/28.1.0 Safari/537.36" etag="yZD2f-fWhqdSi_o_K5VB" version="24.2.5" type="device">
  <diagram name="第 1 页" id="g76JA156wPsX55YK6Fhw">
    <mxGraphModel dx="1984" dy="1976" grid="0" gridSize="10" guides="1" tooltips="1" connect="1" arrows="1" fold="1" page="0" pageScale="1" pageWidth="827" pageHeight="1169" math="0" shadow="0">
      <root>
        <mxCell id="0" />
        <mxCell id="1" parent="0" />
        <mxCell id="S1XcTenByEerrpZ0DZej-4" style="edgeStyle=orthogonalEdgeStyle;rounded=0;orthogonalLoop=1;jettySize=auto;html=1;exitX=1;exitY=0.5;exitDx=0;exitDy=0;entryX=0;entryY=0.5;entryDx=0;entryDy=0;" edge="1" parent="1" source="S1XcTenByEerrpZ0DZej-1" target="S1XcTenByEerrpZ0DZej-3">
          <mxGeometry relative="1" as="geometry" />
        </mxCell>
        <mxCell id="S1XcTenByEerrpZ0DZej-1" value="CPU" style="rounded=1;whiteSpace=wrap;html=1;fillColor=#d5e8d4;strokeColor=#82b366;fontStyle=1" vertex="1" parent="1">
          <mxGeometry x="140" y="555" width="110" height="55" as="geometry" />
        </mxCell>
        <mxCell id="S1XcTenByEerrpZ0DZej-2" value="设备" style="rounded=1;whiteSpace=wrap;html=1;fillColor=#dae8fc;strokeColor=#6c8ebf;fontStyle=1" vertex="1" parent="1">
          <mxGeometry x="817" y="557" width="110" height="55" as="geometry" />
        </mxCell>
        <mxCell id="S1XcTenByEerrpZ0DZej-6" style="edgeStyle=orthogonalEdgeStyle;rounded=0;orthogonalLoop=1;jettySize=auto;html=1;exitX=1;exitY=0.5;exitDx=0;exitDy=0;entryX=0;entryY=0.5;entryDx=0;entryDy=0;" edge="1" parent="1" source="S1XcTenByEerrpZ0DZej-3" target="S1XcTenByEerrpZ0DZej-5">
          <mxGeometry relative="1" as="geometry" />
        </mxCell>
        <mxCell id="S1XcTenByEerrpZ0DZej-7" value="Text" style="edgeLabel;html=1;align=center;verticalAlign=middle;resizable=0;points=[];" vertex="1" connectable="0" parent="S1XcTenByEerrpZ0DZej-6">
          <mxGeometry x="-0.1849" y="-2" relative="1" as="geometry">
            <mxPoint as="offset" />
          </mxGeometry>
        </mxCell>
        <mxCell id="S1XcTenByEerrpZ0DZej-8" value="&lt;b&gt;MMU&lt;/b&gt;" style="edgeLabel;html=1;align=center;verticalAlign=middle;resizable=0;points=[];" vertex="1" connectable="0" parent="S1XcTenByEerrpZ0DZej-6">
          <mxGeometry x="-0.12" y="-3" relative="1" as="geometry">
            <mxPoint y="-3" as="offset" />
          </mxGeometry>
        </mxCell>
        <mxCell id="S1XcTenByEerrpZ0DZej-3" value="VA" style="ellipse;whiteSpace=wrap;html=1;fillColor=#e1d5e7;strokeColor=#9673a6;fontStyle=1" vertex="1" parent="1">
          <mxGeometry x="300" y="552" width="80" height="60" as="geometry" />
        </mxCell>
        <mxCell id="S1XcTenByEerrpZ0DZej-11" style="edgeStyle=orthogonalEdgeStyle;rounded=0;orthogonalLoop=1;jettySize=auto;html=1;exitX=1;exitY=0.5;exitDx=0;exitDy=0;entryX=0;entryY=0.5;entryDx=0;entryDy=0;" edge="1" parent="1" source="S1XcTenByEerrpZ0DZej-5" target="S1XcTenByEerrpZ0DZej-10">
          <mxGeometry relative="1" as="geometry" />
        </mxCell>
        <mxCell id="S1XcTenByEerrpZ0DZej-12" value="&lt;b&gt;PCIe Root Complex&lt;br&gt;主机桥=地址解码&lt;/b&gt;" style="edgeLabel;html=1;align=center;verticalAlign=middle;resizable=0;points=[];" vertex="1" connectable="0" parent="S1XcTenByEerrpZ0DZej-11">
          <mxGeometry x="-0.1594" y="1" relative="1" as="geometry">
            <mxPoint x="7" y="1" as="offset" />
          </mxGeometry>
        </mxCell>
        <mxCell id="S1XcTenByEerrpZ0DZej-5" value="HPA&lt;br&gt;&lt;font style=&quot;font-size: 8px;&quot;&gt;主机物理地址&lt;/font&gt;" style="ellipse;whiteSpace=wrap;html=1;fillColor=#e1d5e7;strokeColor=#9673a6;fontStyle=1" vertex="1" parent="1">
          <mxGeometry x="450" y="552.5" width="80" height="60" as="geometry" />
        </mxCell>
        <mxCell id="S1XcTenByEerrpZ0DZej-13" style="edgeStyle=orthogonalEdgeStyle;rounded=0;orthogonalLoop=1;jettySize=auto;html=1;exitX=1;exitY=0.5;exitDx=0;exitDy=0;entryX=0;entryY=0.5;entryDx=0;entryDy=0;" edge="1" parent="1" source="S1XcTenByEerrpZ0DZej-10" target="S1XcTenByEerrpZ0DZej-2">
          <mxGeometry relative="1" as="geometry" />
        </mxCell>
        <mxCell id="S1XcTenByEerrpZ0DZej-14" style="edgeStyle=orthogonalEdgeStyle;rounded=0;orthogonalLoop=1;jettySize=auto;html=1;exitX=0.5;exitY=0;exitDx=0;exitDy=0;entryX=0.5;entryY=0;entryDx=0;entryDy=0;" edge="1" parent="1" source="S1XcTenByEerrpZ0DZej-10" target="S1XcTenByEerrpZ0DZej-5">
          <mxGeometry relative="1" as="geometry" />
        </mxCell>
        <mxCell id="S1XcTenByEerrpZ0DZej-15" value="&lt;b&gt;MMIO&lt;/b&gt;" style="edgeLabel;html=1;align=center;verticalAlign=middle;resizable=0;points=[];" vertex="1" connectable="0" parent="S1XcTenByEerrpZ0DZej-14">
          <mxGeometry x="-0.0945" y="-2" relative="1" as="geometry">
            <mxPoint x="-15" y="2" as="offset" />
          </mxGeometry>
        </mxCell>
        <mxCell id="S1XcTenByEerrpZ0DZej-10" value="&lt;font style=&quot;font-size: 9px;&quot;&gt;&lt;span style=&quot;font-size: 12px;&quot;&gt;BAR&lt;/span&gt;&lt;br&gt;设备寄存器&lt;/font&gt;&lt;span style=&quot;white-space: pre;&quot;&gt;&#x9;&lt;/span&gt;" style="ellipse;whiteSpace=wrap;html=1;fillColor=#e1d5e7;strokeColor=#9673a6;fontStyle=1" vertex="1" parent="1">
          <mxGeometry x="683" y="555" width="80" height="60" as="geometry" />
        </mxCell>
        <mxCell id="S1XcTenByEerrpZ0DZej-16" style="edgeStyle=orthogonalEdgeStyle;rounded=0;orthogonalLoop=1;jettySize=auto;html=1;exitX=1;exitY=0.5;exitDx=0;exitDy=0;entryX=0;entryY=0.5;entryDx=0;entryDy=0;" edge="1" source="S1XcTenByEerrpZ0DZej-17" target="S1XcTenByEerrpZ0DZej-22" parent="1">
          <mxGeometry relative="1" as="geometry" />
        </mxCell>
        <mxCell id="S1XcTenByEerrpZ0DZej-17" value="CPU" style="rounded=1;whiteSpace=wrap;html=1;fillColor=#d5e8d4;strokeColor=#82b366;fontStyle=1" vertex="1" parent="1">
          <mxGeometry x="140" y="674.51" width="110" height="55" as="geometry" />
        </mxCell>
        <mxCell id="S1XcTenByEerrpZ0DZej-18" value="DRAM内存" style="rounded=1;whiteSpace=wrap;html=1;fillColor=#dae8fc;strokeColor=#6c8ebf;fontStyle=1" vertex="1" parent="1">
          <mxGeometry x="642" y="676.51" width="110" height="55" as="geometry" />
        </mxCell>
        <mxCell id="S1XcTenByEerrpZ0DZej-19" style="edgeStyle=orthogonalEdgeStyle;rounded=0;orthogonalLoop=1;jettySize=auto;html=1;exitX=1;exitY=0.5;exitDx=0;exitDy=0;entryX=0;entryY=0.5;entryDx=0;entryDy=0;" edge="1" source="S1XcTenByEerrpZ0DZej-22" target="S1XcTenByEerrpZ0DZej-25" parent="1">
          <mxGeometry relative="1" as="geometry" />
        </mxCell>
        <mxCell id="S1XcTenByEerrpZ0DZej-20" value="Text" style="edgeLabel;html=1;align=center;verticalAlign=middle;resizable=0;points=[];" vertex="1" connectable="0" parent="S1XcTenByEerrpZ0DZej-19">
          <mxGeometry x="-0.1849" y="-2" relative="1" as="geometry">
            <mxPoint as="offset" />
          </mxGeometry>
        </mxCell>
        <mxCell id="S1XcTenByEerrpZ0DZej-21" value="&lt;b&gt;MMU&lt;/b&gt;" style="edgeLabel;html=1;align=center;verticalAlign=middle;resizable=0;points=[];" vertex="1" connectable="0" parent="S1XcTenByEerrpZ0DZej-19">
          <mxGeometry x="-0.12" y="-3" relative="1" as="geometry">
            <mxPoint y="-3" as="offset" />
          </mxGeometry>
        </mxCell>
        <mxCell id="S1XcTenByEerrpZ0DZej-22" value="VA" style="ellipse;whiteSpace=wrap;html=1;fillColor=#e1d5e7;strokeColor=#9673a6;fontStyle=1" vertex="1" parent="1">
          <mxGeometry x="300" y="671.51" width="80" height="60" as="geometry" />
        </mxCell>
        <mxCell id="S1XcTenByEerrpZ0DZej-31" style="edgeStyle=orthogonalEdgeStyle;rounded=0;orthogonalLoop=1;jettySize=auto;html=1;exitX=1;exitY=0.5;exitDx=0;exitDy=0;entryX=0;entryY=0.5;entryDx=0;entryDy=0;" edge="1" parent="1" source="S1XcTenByEerrpZ0DZej-25" target="S1XcTenByEerrpZ0DZej-18">
          <mxGeometry relative="1" as="geometry" />
        </mxCell>
        <mxCell id="S1XcTenByEerrpZ0DZej-33" value="&lt;b&gt;内存控制器&lt;/b&gt;" style="edgeLabel;html=1;align=center;verticalAlign=middle;resizable=0;points=[];" vertex="1" connectable="0" parent="S1XcTenByEerrpZ0DZej-31">
          <mxGeometry x="-0.0447" y="-1" relative="1" as="geometry">
            <mxPoint x="-2" y="-1" as="offset" />
          </mxGeometry>
        </mxCell>
        <mxCell id="S1XcTenByEerrpZ0DZej-25" value="HPA&lt;br&gt;&lt;font style=&quot;font-size: 8px;&quot;&gt;主机物理地址&lt;/font&gt;" style="ellipse;whiteSpace=wrap;html=1;fillColor=#e1d5e7;strokeColor=#9673a6;fontStyle=1" vertex="1" parent="1">
          <mxGeometry x="450" y="672.01" width="80" height="60" as="geometry" />
        </mxCell>
        <mxCell id="S1XcTenByEerrpZ0DZej-39" style="edgeStyle=orthogonalEdgeStyle;rounded=0;orthogonalLoop=1;jettySize=auto;html=1;exitX=0;exitY=0.5;exitDx=0;exitDy=0;entryX=1;entryY=0.5;entryDx=0;entryDy=0;" edge="1" parent="1" source="S1XcTenByEerrpZ0DZej-34" target="S1XcTenByEerrpZ0DZej-35">
          <mxGeometry relative="1" as="geometry" />
        </mxCell>
        <mxCell id="S1XcTenByEerrpZ0DZej-34" value="设备DMA" style="rounded=1;whiteSpace=wrap;html=1;fillColor=#dae8fc;strokeColor=#6c8ebf;fontStyle=1" vertex="1" parent="1">
          <mxGeometry x="946.5" y="783.5" width="110" height="55" as="geometry" />
        </mxCell>
        <mxCell id="S1XcTenByEerrpZ0DZej-38" style="edgeStyle=orthogonalEdgeStyle;rounded=0;orthogonalLoop=1;jettySize=auto;html=1;exitX=0;exitY=0.5;exitDx=0;exitDy=0;entryX=1;entryY=0.5;entryDx=0;entryDy=0;" edge="1" parent="1" source="S1XcTenByEerrpZ0DZej-35" target="S1XcTenByEerrpZ0DZej-37">
          <mxGeometry relative="1" as="geometry" />
        </mxCell>
        <mxCell id="S1XcTenByEerrpZ0DZej-40" value="&lt;b&gt;IOMMU&lt;/b&gt;" style="edgeLabel;html=1;align=center;verticalAlign=middle;resizable=0;points=[];" vertex="1" connectable="0" parent="S1XcTenByEerrpZ0DZej-38">
          <mxGeometry x="-0.2515" y="1" relative="1" as="geometry">
            <mxPoint x="-6" y="-1" as="offset" />
          </mxGeometry>
        </mxCell>
        <mxCell id="S1XcTenByEerrpZ0DZej-35" value="IOVA" style="ellipse;whiteSpace=wrap;html=1;fillColor=#e1d5e7;strokeColor=#9673a6;fontStyle=1" vertex="1" parent="1">
          <mxGeometry x="812" y="781.5" width="80" height="60" as="geometry" />
        </mxCell>
        <mxCell id="S1XcTenByEerrpZ0DZej-42" style="edgeStyle=orthogonalEdgeStyle;rounded=0;orthogonalLoop=1;jettySize=auto;html=1;exitX=0;exitY=0.5;exitDx=0;exitDy=0;entryX=1;entryY=0.5;entryDx=0;entryDy=0;" edge="1" parent="1" source="S1XcTenByEerrpZ0DZej-37" target="S1XcTenByEerrpZ0DZej-41">
          <mxGeometry relative="1" as="geometry" />
        </mxCell>
        <mxCell id="S1XcTenByEerrpZ0DZej-43" value="&lt;b&gt;内存控制器&lt;/b&gt;" style="edgeLabel;html=1;align=center;verticalAlign=middle;resizable=0;points=[];" vertex="1" connectable="0" parent="S1XcTenByEerrpZ0DZej-42">
          <mxGeometry x="-0.2188" relative="1" as="geometry">
            <mxPoint x="-5" as="offset" />
          </mxGeometry>
        </mxCell>
        <mxCell id="S1XcTenByEerrpZ0DZej-37" value="HPA" style="ellipse;whiteSpace=wrap;html=1;fillColor=#e1d5e7;strokeColor=#9673a6;fontStyle=1" vertex="1" parent="1">
          <mxGeometry x="652" y="781.5" width="80" height="60" as="geometry" />
        </mxCell>
        <mxCell id="S1XcTenByEerrpZ0DZej-41" value="DRAM内存" style="rounded=1;whiteSpace=wrap;html=1;fillColor=#dae8fc;strokeColor=#6c8ebf;fontStyle=1" vertex="1" parent="1">
          <mxGeometry x="429" y="784" width="110" height="55" as="geometry" />
        </mxCell>
        <mxCell id="S1XcTenByEerrpZ0DZej-45" style="edgeStyle=orthogonalEdgeStyle;rounded=0;orthogonalLoop=1;jettySize=auto;html=1;exitX=1;exitY=0.5;exitDx=0;exitDy=0;entryX=0;entryY=0.5;entryDx=0;entryDy=0;" edge="1" source="S1XcTenByEerrpZ0DZej-46" target="S1XcTenByEerrpZ0DZej-50" parent="1">
          <mxGeometry relative="1" as="geometry" />
        </mxCell>
        <mxCell id="S1XcTenByEerrpZ0DZej-46" value="CPU" style="rounded=1;whiteSpace=wrap;html=1;fillColor=#d5e8d4;strokeColor=#82b366;fontStyle=1" vertex="1" parent="1">
          <mxGeometry x="-35" y="784" width="110" height="55" as="geometry" />
        </mxCell>
        <mxCell id="S1XcTenByEerrpZ0DZej-47" style="edgeStyle=orthogonalEdgeStyle;rounded=0;orthogonalLoop=1;jettySize=auto;html=1;exitX=1;exitY=0.5;exitDx=0;exitDy=0;entryX=0;entryY=0.5;entryDx=0;entryDy=0;" edge="1" source="S1XcTenByEerrpZ0DZej-50" target="S1XcTenByEerrpZ0DZej-51" parent="1">
          <mxGeometry relative="1" as="geometry" />
        </mxCell>
        <mxCell id="S1XcTenByEerrpZ0DZej-48" value="Text" style="edgeLabel;html=1;align=center;verticalAlign=middle;resizable=0;points=[];" vertex="1" connectable="0" parent="S1XcTenByEerrpZ0DZej-47">
          <mxGeometry x="-0.1849" y="-2" relative="1" as="geometry">
            <mxPoint as="offset" />
          </mxGeometry>
        </mxCell>
        <mxCell id="S1XcTenByEerrpZ0DZej-49" value="&lt;b&gt;MMU&lt;/b&gt;" style="edgeLabel;html=1;align=center;verticalAlign=middle;resizable=0;points=[];" vertex="1" connectable="0" parent="S1XcTenByEerrpZ0DZej-47">
          <mxGeometry x="-0.12" y="-3" relative="1" as="geometry">
            <mxPoint y="-3" as="offset" />
          </mxGeometry>
        </mxCell>
        <mxCell id="S1XcTenByEerrpZ0DZej-50" value="VA" style="ellipse;whiteSpace=wrap;html=1;fillColor=#e1d5e7;strokeColor=#9673a6;fontStyle=1" vertex="1" parent="1">
          <mxGeometry x="125" y="781" width="80" height="60" as="geometry" />
        </mxCell>
        <mxCell id="S1XcTenByEerrpZ0DZej-53" style="edgeStyle=orthogonalEdgeStyle;rounded=0;orthogonalLoop=1;jettySize=auto;html=1;exitX=1;exitY=0.5;exitDx=0;exitDy=0;entryX=0;entryY=0.5;entryDx=0;entryDy=0;" edge="1" parent="1" source="S1XcTenByEerrpZ0DZej-51" target="S1XcTenByEerrpZ0DZej-41">
          <mxGeometry relative="1" as="geometry" />
        </mxCell>
        <mxCell id="S1XcTenByEerrpZ0DZej-51" value="HPA&lt;br&gt;&lt;font style=&quot;font-size: 8px;&quot;&gt;主机物理地址&lt;/font&gt;" style="ellipse;whiteSpace=wrap;html=1;fillColor=#e1d5e7;strokeColor=#9673a6;fontStyle=1" vertex="1" parent="1">
          <mxGeometry x="288" y="781.5" width="80" height="60" as="geometry" />
        </mxCell>
        <mxCell id="S1XcTenByEerrpZ0DZej-58" style="edgeStyle=orthogonalEdgeStyle;rounded=0;orthogonalLoop=1;jettySize=auto;html=1;exitX=1;exitY=0.5;exitDx=0;exitDy=0;entryX=0;entryY=0.5;entryDx=0;entryDy=0;" edge="1" parent="1" source="S1XcTenByEerrpZ0DZej-54" target="S1XcTenByEerrpZ0DZej-57">
          <mxGeometry relative="1" as="geometry" />
        </mxCell>
        <mxCell id="S1XcTenByEerrpZ0DZej-60" value="&lt;b&gt;检索枚举&lt;/b&gt;" style="edgeLabel;html=1;align=center;verticalAlign=middle;resizable=0;points=[];" vertex="1" connectable="0" parent="S1XcTenByEerrpZ0DZej-58">
          <mxGeometry x="-0.1472" relative="1" as="geometry">
            <mxPoint x="4" as="offset" />
          </mxGeometry>
        </mxCell>
        <mxCell id="S1XcTenByEerrpZ0DZej-54" value="BIOS固件" style="rounded=1;whiteSpace=wrap;html=1;fillColor=#dae8fc;strokeColor=#6c8ebf;" vertex="1" parent="1">
          <mxGeometry x="-160" y="1219" width="106" height="54" as="geometry" />
        </mxCell>
        <mxCell id="S1XcTenByEerrpZ0DZej-67" style="edgeStyle=orthogonalEdgeStyle;rounded=1;orthogonalLoop=1;jettySize=auto;html=1;exitX=1;exitY=0.5;exitDx=0;exitDy=0;entryX=0;entryY=0.5;entryDx=0;entryDy=0;curved=0;" edge="1" parent="1" source="S1XcTenByEerrpZ0DZej-57" target="S1XcTenByEerrpZ0DZej-61">
          <mxGeometry relative="1" as="geometry">
            <Array as="points">
              <mxPoint x="175" y="1246" />
              <mxPoint x="175" y="1141" />
            </Array>
          </mxGeometry>
        </mxCell>
        <mxCell id="S1XcTenByEerrpZ0DZej-69" style="edgeStyle=orthogonalEdgeStyle;curved=0;rounded=1;orthogonalLoop=1;jettySize=auto;html=1;exitX=1;exitY=0.5;exitDx=0;exitDy=0;entryX=0;entryY=0.5;entryDx=0;entryDy=0;strokeColor=default;align=center;verticalAlign=middle;fontFamily=Helvetica;fontSize=11;fontColor=default;labelBackgroundColor=default;endArrow=classic;" edge="1" parent="1" source="S1XcTenByEerrpZ0DZej-57" target="S1XcTenByEerrpZ0DZej-62">
          <mxGeometry relative="1" as="geometry" />
        </mxCell>
        <mxCell id="S1XcTenByEerrpZ0DZej-70" style="edgeStyle=orthogonalEdgeStyle;curved=0;rounded=1;orthogonalLoop=1;jettySize=auto;html=1;exitX=1;exitY=0.5;exitDx=0;exitDy=0;entryX=0;entryY=0.5;entryDx=0;entryDy=0;strokeColor=default;align=center;verticalAlign=middle;fontFamily=Helvetica;fontSize=11;fontColor=default;labelBackgroundColor=default;endArrow=classic;" edge="1" parent="1" source="S1XcTenByEerrpZ0DZej-57" target="S1XcTenByEerrpZ0DZej-64">
          <mxGeometry relative="1" as="geometry">
            <Array as="points">
              <mxPoint x="177" y="1246" />
              <mxPoint x="177" y="1492" />
              <mxPoint x="226" y="1492" />
            </Array>
          </mxGeometry>
        </mxCell>
        <mxCell id="S1XcTenByEerrpZ0DZej-57" value="内存地图" style="rounded=1;whiteSpace=wrap;html=1;fillColor=#dae8fc;strokeColor=#6c8ebf;" vertex="1" parent="1">
          <mxGeometry x="30" y="1219" width="106" height="54" as="geometry" />
        </mxCell>
        <mxCell id="S1XcTenByEerrpZ0DZej-77" style="edgeStyle=orthogonalEdgeStyle;curved=0;rounded=1;orthogonalLoop=1;jettySize=auto;html=1;exitX=1;exitY=0.5;exitDx=0;exitDy=0;entryX=0;entryY=0.5;entryDx=0;entryDy=0;strokeColor=default;align=center;verticalAlign=middle;fontFamily=Helvetica;fontSize=11;fontColor=default;labelBackgroundColor=default;endArrow=classic;" edge="1" parent="1" source="S1XcTenByEerrpZ0DZej-61" target="S1XcTenByEerrpZ0DZej-73">
          <mxGeometry relative="1" as="geometry">
            <Array as="points">
              <mxPoint x="470" y="1140" />
              <mxPoint x="470" y="1186" />
            </Array>
          </mxGeometry>
        </mxCell>
        <mxCell id="S1XcTenByEerrpZ0DZej-80" value="&lt;b&gt;memory&lt;/b&gt;" style="edgeLabel;html=1;align=center;verticalAlign=middle;resizable=0;points=[];fontFamily=Helvetica;fontSize=11;fontColor=default;labelBackgroundColor=default;" vertex="1" connectable="0" parent="S1XcTenByEerrpZ0DZej-77">
          <mxGeometry x="-0.6459" y="1" relative="1" as="geometry">
            <mxPoint x="13" y="1" as="offset" />
          </mxGeometry>
        </mxCell>
        <mxCell id="S1XcTenByEerrpZ0DZej-86" style="edgeStyle=orthogonalEdgeStyle;curved=0;rounded=1;orthogonalLoop=1;jettySize=auto;html=1;exitX=1;exitY=0.5;exitDx=0;exitDy=0;entryX=0;entryY=0.5;entryDx=0;entryDy=0;strokeColor=default;align=center;verticalAlign=middle;fontFamily=Helvetica;fontSize=11;fontColor=default;labelBackgroundColor=default;endArrow=classic;" edge="1" parent="1" source="S1XcTenByEerrpZ0DZej-61" target="S1XcTenByEerrpZ0DZej-85">
          <mxGeometry relative="1" as="geometry">
            <Array as="points">
              <mxPoint x="464" y="1140" />
              <mxPoint x="464" y="1357" />
            </Array>
          </mxGeometry>
        </mxCell>
        <mxCell id="S1XcTenByEerrpZ0DZej-92" style="edgeStyle=orthogonalEdgeStyle;curved=0;rounded=1;orthogonalLoop=1;jettySize=auto;html=1;exitX=1;exitY=0.5;exitDx=0;exitDy=0;entryX=0;entryY=0.5;entryDx=0;entryDy=0;strokeColor=default;align=center;verticalAlign=middle;fontFamily=Helvetica;fontSize=11;fontColor=default;labelBackgroundColor=default;endArrow=classic;" edge="1" parent="1" source="S1XcTenByEerrpZ0DZej-61" target="S1XcTenByEerrpZ0DZej-91">
          <mxGeometry relative="1" as="geometry" />
        </mxCell>
        <mxCell id="S1XcTenByEerrpZ0DZej-61" value="System RAM" style="rounded=1;whiteSpace=wrap;html=1;fillColor=#dae8fc;strokeColor=#6c8ebf;" vertex="1" parent="1">
          <mxGeometry x="226" y="1117" width="138" height="46" as="geometry" />
        </mxCell>
        <mxCell id="S1XcTenByEerrpZ0DZej-79" style="edgeStyle=orthogonalEdgeStyle;curved=0;rounded=1;orthogonalLoop=1;jettySize=auto;html=1;exitX=1;exitY=0.5;exitDx=0;exitDy=0;entryX=0;entryY=0.5;entryDx=0;entryDy=0;strokeColor=default;align=center;verticalAlign=middle;fontFamily=Helvetica;fontSize=11;fontColor=default;labelBackgroundColor=default;endArrow=classic;" edge="1" parent="1" source="S1XcTenByEerrpZ0DZej-62" target="S1XcTenByEerrpZ0DZej-73">
          <mxGeometry relative="1" as="geometry">
            <Array as="points">
              <mxPoint x="471" y="1246" />
              <mxPoint x="471" y="1186" />
            </Array>
          </mxGeometry>
        </mxCell>
        <mxCell id="S1XcTenByEerrpZ0DZej-81" value="&lt;b&gt;reserved&lt;/b&gt;" style="edgeLabel;html=1;align=center;verticalAlign=middle;resizable=0;points=[];fontFamily=Helvetica;fontSize=11;fontColor=default;labelBackgroundColor=default;" vertex="1" connectable="0" parent="S1XcTenByEerrpZ0DZej-79">
          <mxGeometry x="-0.6989" y="-3" relative="1" as="geometry">
            <mxPoint x="9" y="-3" as="offset" />
          </mxGeometry>
        </mxCell>
        <mxCell id="S1XcTenByEerrpZ0DZej-87" style="edgeStyle=orthogonalEdgeStyle;curved=0;rounded=1;orthogonalLoop=1;jettySize=auto;html=1;exitX=1;exitY=0.5;exitDx=0;exitDy=0;entryX=0;entryY=0.5;entryDx=0;entryDy=0;strokeColor=default;align=center;verticalAlign=middle;fontFamily=Helvetica;fontSize=11;fontColor=default;labelBackgroundColor=default;endArrow=classic;" edge="1" parent="1" source="S1XcTenByEerrpZ0DZej-62" target="S1XcTenByEerrpZ0DZej-85">
          <mxGeometry relative="1" as="geometry">
            <Array as="points">
              <mxPoint x="463" y="1246" />
              <mxPoint x="463" y="1357" />
            </Array>
          </mxGeometry>
        </mxCell>
        <mxCell id="S1XcTenByEerrpZ0DZej-62" value="Reserved/ACPI/Runtime" style="rounded=1;whiteSpace=wrap;html=1;fillColor=#dae8fc;strokeColor=#6c8ebf;" vertex="1" parent="1">
          <mxGeometry x="226" y="1223" width="165" height="46" as="geometry" />
        </mxCell>
        <mxCell id="S1XcTenByEerrpZ0DZej-82" style="edgeStyle=orthogonalEdgeStyle;curved=0;rounded=1;orthogonalLoop=1;jettySize=auto;html=1;exitX=1;exitY=0.5;exitDx=0;exitDy=0;entryX=0;entryY=0.5;entryDx=0;entryDy=0;strokeColor=default;align=center;verticalAlign=middle;fontFamily=Helvetica;fontSize=11;fontColor=default;labelBackgroundColor=default;endArrow=classic;" edge="1" parent="1" source="S1XcTenByEerrpZ0DZej-64" target="S1XcTenByEerrpZ0DZej-65">
          <mxGeometry relative="1" as="geometry" />
        </mxCell>
        <mxCell id="S1XcTenByEerrpZ0DZej-83" style="edgeStyle=orthogonalEdgeStyle;curved=0;rounded=1;orthogonalLoop=1;jettySize=auto;html=1;exitX=1;exitY=0.5;exitDx=0;exitDy=0;entryX=0;entryY=0.5;entryDx=0;entryDy=0;strokeColor=default;align=center;verticalAlign=middle;fontFamily=Helvetica;fontSize=11;fontColor=default;labelBackgroundColor=default;endArrow=classic;" edge="1" parent="1" source="S1XcTenByEerrpZ0DZej-64" target="S1XcTenByEerrpZ0DZej-66">
          <mxGeometry relative="1" as="geometry" />
        </mxCell>
        <mxCell id="S1XcTenByEerrpZ0DZej-88" style="edgeStyle=orthogonalEdgeStyle;curved=0;rounded=1;orthogonalLoop=1;jettySize=auto;html=1;exitX=1;exitY=0.5;exitDx=0;exitDy=0;entryX=0;entryY=0.5;entryDx=0;entryDy=0;strokeColor=default;align=center;verticalAlign=middle;fontFamily=Helvetica;fontSize=11;fontColor=default;labelBackgroundColor=default;endArrow=classic;" edge="1" parent="1" source="S1XcTenByEerrpZ0DZej-64" target="S1XcTenByEerrpZ0DZej-85">
          <mxGeometry relative="1" as="geometry">
            <Array as="points">
              <mxPoint x="467" y="1492" />
              <mxPoint x="467" y="1357" />
            </Array>
          </mxGeometry>
        </mxCell>
        <mxCell id="S1XcTenByEerrpZ0DZej-89" value="构建并维护" style="edgeLabel;html=1;align=center;verticalAlign=middle;resizable=0;points=[];fontFamily=Helvetica;fontSize=11;fontColor=default;labelBackgroundColor=default;" vertex="1" connectable="0" parent="S1XcTenByEerrpZ0DZej-88">
          <mxGeometry x="0.5714" relative="1" as="geometry">
            <mxPoint as="offset" />
          </mxGeometry>
        </mxCell>
        <mxCell id="S1XcTenByEerrpZ0DZej-64" value="Memory-Mapped I/O" style="rounded=1;whiteSpace=wrap;html=1;fillColor=#dae8fc;strokeColor=#6c8ebf;" vertex="1" parent="1">
          <mxGeometry x="226" y="1469" width="165" height="46" as="geometry" />
        </mxCell>
        <mxCell id="S1XcTenByEerrpZ0DZej-65" value="PCIe MMIO" style="rounded=1;whiteSpace=wrap;html=1;fillColor=#dae8fc;strokeColor=#6c8ebf;" vertex="1" parent="1">
          <mxGeometry x="448" y="1429" width="143" height="44" as="geometry" />
        </mxCell>
        <mxCell id="S1XcTenByEerrpZ0DZej-66" value="MMCONFIG" style="rounded=1;whiteSpace=wrap;html=1;fillColor=#dae8fc;strokeColor=#6c8ebf;" vertex="1" parent="1">
          <mxGeometry x="448" y="1513" width="143" height="44" as="geometry" />
        </mxCell>
        <mxCell id="S1XcTenByEerrpZ0DZej-68" style="edgeStyle=orthogonalEdgeStyle;curved=0;rounded=1;orthogonalLoop=1;jettySize=auto;html=1;exitX=0.5;exitY=1;exitDx=0;exitDy=0;strokeColor=default;align=center;verticalAlign=middle;fontFamily=Helvetica;fontSize=11;fontColor=default;labelBackgroundColor=default;endArrow=classic;" edge="1" parent="1" source="S1XcTenByEerrpZ0DZej-64" target="S1XcTenByEerrpZ0DZej-64">
          <mxGeometry relative="1" as="geometry" />
        </mxCell>
        <mxCell id="S1XcTenByEerrpZ0DZej-71" style="edgeStyle=orthogonalEdgeStyle;curved=0;rounded=1;orthogonalLoop=1;jettySize=auto;html=1;exitX=0.5;exitY=1;exitDx=0;exitDy=0;strokeColor=default;align=center;verticalAlign=middle;fontFamily=Helvetica;fontSize=11;fontColor=default;labelBackgroundColor=default;endArrow=classic;" edge="1" parent="1" source="S1XcTenByEerrpZ0DZej-62">
          <mxGeometry relative="1" as="geometry">
            <mxPoint x="322" y="1256" as="targetPoint" />
          </mxGeometry>
        </mxCell>
        <mxCell id="S1XcTenByEerrpZ0DZej-84" style="edgeStyle=orthogonalEdgeStyle;curved=0;rounded=1;orthogonalLoop=1;jettySize=auto;html=1;exitX=1;exitY=0.5;exitDx=0;exitDy=0;entryX=0;entryY=0.5;entryDx=0;entryDy=0;strokeColor=default;align=center;verticalAlign=middle;fontFamily=Helvetica;fontSize=11;fontColor=default;labelBackgroundColor=default;endArrow=classic;" edge="1" parent="1" source="S1XcTenByEerrpZ0DZej-73" target="S1XcTenByEerrpZ0DZej-74">
          <mxGeometry relative="1" as="geometry" />
        </mxCell>
        <mxCell id="S1XcTenByEerrpZ0DZej-73" value="构建memblock" style="rounded=1;whiteSpace=wrap;html=1;fillColor=#dae8fc;strokeColor=#6c8ebf;" vertex="1" parent="1">
          <mxGeometry x="523" y="1163" width="138" height="46" as="geometry" />
        </mxCell>
        <mxCell id="S1XcTenByEerrpZ0DZej-74" value="&lt;span style=&quot;box-sizing: border-box; color: rgb(51, 51, 51); font-family: &amp;quot;Open Sans&amp;quot;, &amp;quot;Clear Sans&amp;quot;, &amp;quot;Helvetica Neue&amp;quot;, Helvetica, Arial, &amp;quot;Segoe UI Emoji&amp;quot;, &amp;quot;SF Pro&amp;quot;, sans-serif; orphans: 1; text-align: left; white-space-collapse: preserve;&quot;&gt;&lt;font style=&quot;font-size: 12px;&quot;&gt;据 memblock 初始化页管理&lt;br/&gt;SPARSMEM&lt;/font&gt;&lt;/span&gt;" style="rounded=1;whiteSpace=wrap;html=1;fillColor=#dae8fc;strokeColor=#6c8ebf;" vertex="1" parent="1">
          <mxGeometry x="807" y="1163" width="176" height="46" as="geometry" />
        </mxCell>
        <mxCell id="S1XcTenByEerrpZ0DZej-85" value="iomem资源树" style="rounded=1;whiteSpace=wrap;html=1;fillColor=#dae8fc;strokeColor=#6c8ebf;" vertex="1" parent="1">
          <mxGeometry x="618" y="1335" width="143" height="44" as="geometry" />
        </mxCell>
        <mxCell id="S1XcTenByEerrpZ0DZej-95" style="edgeStyle=orthogonalEdgeStyle;curved=0;rounded=1;orthogonalLoop=1;jettySize=auto;html=1;exitX=1;exitY=0.5;exitDx=0;exitDy=0;entryX=0.5;entryY=0;entryDx=0;entryDy=0;strokeColor=default;align=center;verticalAlign=middle;fontFamily=Helvetica;fontSize=11;fontColor=default;labelBackgroundColor=default;endArrow=classic;" edge="1" parent="1" source="S1XcTenByEerrpZ0DZej-91" target="S1XcTenByEerrpZ0DZej-74">
          <mxGeometry relative="1" as="geometry" />
        </mxCell>
        <mxCell id="S1XcTenByEerrpZ0DZej-96" value="存放struct page元数据" style="edgeLabel;html=1;align=center;verticalAlign=middle;resizable=0;points=[];fontFamily=Helvetica;fontSize=11;fontColor=default;labelBackgroundColor=default;" vertex="1" connectable="0" parent="S1XcTenByEerrpZ0DZej-95">
          <mxGeometry x="-0.6108" relative="1" as="geometry">
            <mxPoint x="41" as="offset" />
          </mxGeometry>
        </mxCell>
        <mxCell id="S1XcTenByEerrpZ0DZej-91" value="创建vmemmap" style="rounded=1;whiteSpace=wrap;html=1;fillColor=#dae8fc;strokeColor=#6c8ebf;" vertex="1" parent="1">
          <mxGeometry x="570" y="1065" width="138" height="46" as="geometry" />
        </mxCell>
      </root>
    </mxGraphModel>
  </diagram>
</mxfile>
